<svg width="19" height="22" viewBox="0 0 19 22" fill="none" xmlns="http://www.w3.org/2000/svg">
<path fill-rule="evenodd" clip-rule="evenodd" d="M3.98017 1.79279C4.08595 1.71147 4.17439 1.60979 4.24028 1.49376C4.30616 1.37772 4.34816 1.24967 4.36379 1.11716C4.37942 0.984643 4.36838 0.850339 4.3313 0.722158C4.29423 0.593978 4.23188 0.474513 4.14792 0.370802C4.06396 0.267091 3.9601 0.181231 3.84245 0.11828C3.7248 0.0553292 3.59574 0.016561 3.46287 0.00425906C3.33 -0.00804287 3.19602 0.0063704 3.06881 0.0466496C2.9416 0.0869289 2.82374 0.152259 2.72217 0.238793C1.64298 1.11016 0.756878 2.19651 0.120166 3.42879C0.0570408 3.54565 0.0178263 3.67391 0.00481215 3.80609C-0.00820195 3.93827 0.00524525 4.07171 0.0443684 4.19864C0.0834916 4.32556 0.147507 4.44342 0.232678 4.54534C0.317848 4.64725 0.422467 4.73118 0.540428 4.79221C0.658388 4.85325 0.787326 4.89018 0.919714 4.90085C1.0521 4.91151 1.18529 4.89569 1.3115 4.85432C1.43771 4.81295 1.55441 4.74685 1.65479 4.65988C1.75518 4.57291 1.83723 4.46682 1.89617 4.34779C2.40589 3.36066 3.11563 2.49052 3.98017 1.79279ZM15.2942 0.238793C15.1926 0.152259 15.0747 0.0869289 14.9475 0.0466496C14.8203 0.0063704 14.6863 -0.00804287 14.5535 0.00425906C14.4206 0.016561 14.2915 0.0553292 14.1739 0.11828C14.0562 0.181231 13.9524 0.267091 13.8684 0.370802C13.7845 0.474513 13.7221 0.593978 13.685 0.722158C13.648 0.850339 13.6369 0.984643 13.6525 1.11716C13.6682 1.24967 13.7102 1.37772 13.7761 1.49376C13.8419 1.60979 13.9304 1.71147 14.0362 1.79279C14.9043 2.49368 15.6162 3.36841 16.1262 4.36079C16.1863 4.47754 16.2689 4.58129 16.3691 4.66614C16.4694 4.75098 16.5853 4.81524 16.7104 4.85527C16.8355 4.89529 16.9672 4.91028 17.0981 4.89939C17.229 4.8885 17.3564 4.85194 17.4732 4.79179C17.5899 4.73165 17.6937 4.6491 17.7785 4.54885C17.8634 4.44861 17.9276 4.33264 17.9676 4.20756C18.0077 4.08248 18.0227 3.95074 18.0118 3.81986C18.0009 3.68899 17.9643 3.56154 17.9042 3.44479C17.267 2.206 16.378 1.114 15.2942 0.238793ZM2.00817 8.01579C2.00817 6.15928 2.74566 4.3788 4.05842 3.06605C5.37117 1.75329 7.15165 1.01579 9.00817 1.01579C10.8647 1.01579 12.6452 1.75329 13.9579 3.06605C15.2707 4.3788 16.0082 6.15928 16.0082 8.01579V11.7798L17.8302 15.4238C17.914 15.5915 17.9536 15.7779 17.9452 15.9652C17.9368 16.1526 17.8806 16.3346 17.782 16.4941C17.6834 16.6536 17.5457 16.7853 17.3819 16.8766C17.2181 16.9679 17.0337 17.0158 16.8462 17.0158H1.17017C0.982644 17.0158 0.798228 16.9679 0.634433 16.8766C0.470639 16.7853 0.332904 16.6536 0.234311 16.4941C0.135719 16.3346 0.0795414 16.1526 0.0711149 15.9652C0.0626885 15.7779 0.102293 15.5915 0.186166 15.4238L2.00817 11.7798V8.01579ZM6.00817 18.0158H12.0082C12.0082 18.5462 11.7975 19.0549 11.4224 19.43C11.0473 19.8051 10.5386 20.0158 10.0082 20.0158H8.00817C7.47773 20.0158 6.96903 19.8051 6.59395 19.43C6.21888 19.0549 6.00817 18.5462 6.00817 18.0158Z" fill="#B3B3B3"/>
</svg>
