<svg width="24" height="24" viewBox="0 0 24 24" fill="none" xmlns="http://www.w3.org/2000/svg">
<path d="M12.0001 3.00002C13.8566 3.00002 15.6371 3.73752 16.9498 5.05027C18.2626 6.36302 19.0001 8.1435 19.0001 10V13.764L20.8221 17.408C20.906 17.5757 20.9456 17.7621 20.9371 17.9494C20.9287 18.1368 20.8725 18.3188 20.7739 18.4784C20.6754 18.6379 20.5376 18.7695 20.3738 18.8608C20.21 18.9521 20.0256 19 19.8381 19H4.16209C3.97457 19 3.79015 18.9521 3.62635 18.8608C3.46256 18.7695 3.32483 18.6379 3.22623 18.4784C3.12764 18.3188 3.07146 18.1368 3.06304 17.9494C3.05461 17.7621 3.09421 17.5757 3.17809 17.408L5.00009 13.764V10C5.00009 8.1435 5.73759 6.36302 7.05034 5.05027C8.36309 3.73752 10.1436 3.00002 12.0001 3.00002ZM12.0001 5.00002C10.674 5.00002 9.40224 5.5268 8.46455 6.46448C7.52687 7.40217 7.00009 8.67394 7.00009 10V13.764C7.00007 14.0744 6.92783 14.3804 6.78909 14.658L5.61909 17H18.3821L17.2121 14.658C17.073 14.3805 17.0004 14.0744 17.0001 13.764V10C17.0001 8.67394 16.4733 7.40217 15.5356 6.46448C14.5979 5.5268 13.3262 5.00002 12.0001 5.00002ZM16.8801 2.37002C17.0471 2.16417 17.289 2.03305 17.5527 2.00549C17.8163 1.97792 18.0801 2.05616 18.2861 2.22302C19.3699 3.09822 20.2589 4.19022 20.8961 5.42902C21.0114 5.66414 21.0299 5.93511 20.9476 6.1837C20.8652 6.4323 20.6887 6.63869 20.4558 6.75852C20.223 6.87835 19.9524 6.90205 19.7023 6.82455C19.4521 6.74704 19.2424 6.57451 19.1181 6.34402C18.608 5.352 17.8961 4.47762 17.0281 3.77702C16.8221 3.61015 16.6908 3.36831 16.663 3.10466C16.6353 2.841 16.7133 2.57712 16.8801 2.37102V2.37002ZM7.12009 2.37002C7.2028 2.4721 7.26459 2.58948 7.30192 2.71545C7.33925 2.84143 7.35139 2.97352 7.33765 3.10419C7.3239 3.23485 7.28454 3.36153 7.22182 3.47698C7.15909 3.59243 7.07423 3.69438 6.97209 3.77702C6.10755 4.47474 5.39781 5.34489 4.88809 6.33202C4.83004 6.45242 4.74845 6.55997 4.64812 6.64829C4.5478 6.73662 4.43079 6.80394 4.30401 6.84627C4.17722 6.88861 4.04324 6.90509 3.90997 6.89475C3.77671 6.88442 3.64687 6.84747 3.52813 6.78609C3.40939 6.72472 3.30416 6.64016 3.21865 6.53742C3.13315 6.43467 3.06912 6.31583 3.03033 6.18792C2.99154 6.06001 2.9788 5.92562 2.99284 5.79269C3.00688 5.65976 3.04743 5.531 3.11209 5.41402C3.74868 4.18138 4.6348 3.09468 5.71409 2.22302C5.92019 2.05628 6.18408 1.9782 6.44773 2.00596C6.71138 2.03371 6.95322 2.16502 7.12009 2.37102V2.37002ZM9.00009 20H15.0001C15.0001 20.5305 14.7894 21.0392 14.4143 21.4142C14.0392 21.7893 13.5305 22 13.0001 22H11.0001C10.4697 22 9.96095 21.7893 9.58587 21.4142C9.2108 21.0392 9.00009 20.5305 9.00009 20Z" fill="#B3B3B3"/>
</svg>
