<svg width="10" height="16" viewBox="0 0 10 16" fill="none" xmlns="http://www.w3.org/2000/svg">
<path d="M1.146 0.146001C1.19252 0.099599 1.24773 0.0628209 1.30847 0.0377692C1.36921 0.0127175 1.4343 -0.00011655 1.5 7.97493e-07H8.5C8.63261 7.97493e-07 8.75979 0.0526792 8.85355 0.146447C8.94732 0.240216 9 0.367393 9 0.500001C9 1.18 8.658 1.674 8.354 1.979C8.228 2.104 8.104 2.203 8 2.277V6.708L8.078 6.756C8.281 6.883 8.554 7.07 8.829 7.311C9.36 7.775 10 8.527 10 9.5C10 9.63261 9.94732 9.75979 9.85355 9.85355C9.75979 9.94732 9.63261 10 9.5 10H5.5V14.5C5.5 14.776 5.276 16 5 16C4.724 16 4.5 14.776 4.5 14.5V10H0.5C0.367392 10 0.240215 9.94732 0.146447 9.85355C0.0526785 9.75979 0 9.63261 0 9.5C0 8.527 0.64 7.775 1.17 7.311C1.42894 7.08667 1.70663 6.88494 2 6.708V2.277C1.8745 2.18693 1.75615 2.0873 1.646 1.979C1.342 1.674 1 1.179 1 0.500001C0.999883 0.434296 1.01272 0.369212 1.03777 0.30847C1.06282 0.247728 1.0996 0.19252 1.146 0.146001ZM2.724 1.553L2.726 1.554C2.80842 1.59577 2.87766 1.65955 2.92603 1.73828C2.97439 1.81701 3 1.9076 3 2V7C3 7.09278 2.97418 7.18373 2.92544 7.26267C2.87669 7.34161 2.80695 7.40544 2.724 7.447H2.722L2.71 7.454L2.656 7.484C2.36146 7.64892 2.08438 7.84325 1.829 8.064C1.511 8.342 1.244 8.66 1.104 9H8.896C8.756 8.66 8.489 8.342 8.171 8.064C7.90003 7.8297 7.60467 7.62519 7.29 7.454L7.278 7.448H7.276C7.1929 7.40636 7.12305 7.34238 7.0743 7.26324C7.02555 7.18411 6.99982 7.09295 7 7V2C6.99962 1.90331 7.02729 1.80858 7.07965 1.7273C7.132 1.64601 7.20681 1.58164 7.295 1.542C7.42272 1.46648 7.54062 1.37546 7.646 1.271C7.726 1.191 7.801 1.101 7.86 1H2.14C2.20067 1.1 2.272 1.19033 2.354 1.271C2.46462 1.38061 2.58899 1.4754 2.724 1.553Z" fill="#B3B3B3"/>
</svg>
